<svg width="132" height="53" viewBox="0 0 132 53" fill="none" xmlns="http://www.w3.org/2000/svg">
<path d="M12.8643 2.05591C14.6415 2.05591 16.2459 2.35039 17.6729 2.94458H17.6719C19.1173 3.53848 20.3352 4.40231 21.3213 5.53638L21.4814 5.71997L21.3018 5.88403L18.3672 8.57739L18.1865 8.74341L18.0176 8.56567C17.3234 7.8393 16.5699 7.30944 15.7588 6.96899L15.7549 6.96704C14.9425 6.60813 14.0549 6.427 13.0898 6.427C12.1569 6.42705 11.3128 6.57258 10.5547 6.85962C9.79472 7.14742 9.13689 7.56032 8.5791 8.09692C8.0406 8.63306 7.61768 9.26791 7.31055 10.0042C7.02358 10.737 6.87793 11.555 6.87793 12.4612C6.87795 13.3479 7.02336 14.1565 7.31055 14.8899L7.43164 15.1624C7.72552 15.7858 8.10771 16.3399 8.5791 16.8254L8.79297 17.0208C9.30122 17.4634 9.87852 17.8102 10.5264 18.0618L10.8145 18.1633C11.4951 18.3836 12.2346 18.4944 13.0342 18.4944C13.9094 18.4943 14.7565 18.3593 15.5762 18.0881L15.8877 17.9709C16.0396 17.9093 16.1894 17.8385 16.3398 17.7639V11.9026H21.0156V20.2444L20.916 20.3196C19.8178 21.1432 18.5395 21.7716 17.085 22.2092C15.6517 22.6461 14.2168 22.8664 12.7803 22.8665C11.1927 22.8665 9.72347 22.6188 8.37598 22.1213L8.37207 22.1194C7.04542 21.6033 5.87943 20.8758 4.87695 19.9368L4.875 19.9358C3.8915 18.9964 3.12011 17.8938 2.56152 16.6301L2.56055 16.6272C2.01928 15.3589 1.75002 13.9689 1.75 12.4612C1.75 10.9534 2.01926 9.56351 2.56055 8.29517L2.56152 8.29224C3.12059 7.02742 3.90232 5.92413 4.90527 4.98462C5.90892 4.04452 7.08516 3.32557 8.43164 2.82837V2.82935C9.77966 2.31282 11.2581 2.05593 12.8643 2.05591Z" fill="#15719A" stroke="#15719A" stroke-width="0.5"/>
<path d="M27.4888 2.3501V22.6304H22.4106V2.3501H27.4888Z" fill="#15719A" stroke="#15719A" stroke-width="0.5"/>
<path fill-rule="evenodd" clip-rule="evenodd" d="M46.3796 8.26767C46.4649 8.74754 46.5084 9.25092 46.5084 9.77765C46.5083 11.2953 46.1475 12.6246 45.4152 13.7528C44.6846 14.8782 43.65 15.7423 42.3233 16.3471L42.3202 16.3485C40.9932 16.9339 39.4247 17.2212 37.6235 17.2212H33.9335V22.6751H28.7671V17.0347L35.5467 10.1669L39.8173 14.3795L46.3796 8.26767Z" fill="#15719A"/>
<path fill-rule="evenodd" clip-rule="evenodd" d="M37.6235 2.30591C39.4245 2.30591 40.993 2.60269 42.3202 3.20707L42.5657 3.32004C43.6916 3.8602 44.5943 4.60515 45.2666 5.55584L39.8173 10.964L35.5467 6.75136L28.7671 13.6192V2.30591H37.6235Z" fill="#15719A"/>
<path d="M65.1269 11.9124C65.7358 11.3927 66.0402 10.652 66.0402 9.69023C66.0402 8.72846 65.7358 7.98193 65.1269 7.45257C64.518 6.92321 63.6144 6.65756 62.418 6.65756H59.1798V12.6938H62.418C63.6164 12.6938 64.518 12.434 65.1269 11.9124ZM67.6302 2.99082C69.0031 3.60937 70.0637 4.49164 70.8103 5.6415C71.5568 6.78942 71.9291 8.14093 71.9291 9.69023C71.9291 11.2395 71.5548 12.5852 70.8103 13.7235C70.0637 14.8617 69.0031 15.7401 67.6302 16.3586C66.2554 16.9772 64.6363 17.2855 62.771 17.2855H59.1779V22.6741H53.3472V2.06201H62.769C64.6344 2.06201 66.2535 2.37226 67.6283 2.98888" fill="#011B39"/>
<path d="M78.8185 2.06396H72.9878V22.6761H78.8185V2.06396Z" fill="#011B39"/>
<path d="M94.4836 14.3711L91.8329 7.77445L89.1822 14.3711H94.4816H94.4836ZM96.1919 18.67H87.4758L85.8567 22.6741H79.9077L89.0077 2.06201H94.7492L103.878 22.6741H97.8129L96.1938 18.67H96.1919Z" fill="#011B39"/>
<path d="M105.098 20.5858C103.399 18.9182 102.55 16.5525 102.55 13.4888V2.06396H108.381V13.3124C108.381 16.6107 109.686 18.2589 112.297 18.2589C114.909 18.2589 116.185 16.6107 116.185 13.3124V2.06396H121.927V13.4888C121.927 16.5506 121.077 18.9162 119.379 20.5858C117.68 22.2553 115.301 23.0891 112.237 23.0891C109.174 23.0891 106.794 22.2553 105.096 20.5858" fill="#011B39"/>
<path d="M129.346 2H123.515V5.74624L129.346 2Z" fill="#011B39"/>
<path d="M123.515 7.44106V22.6122H129.346V3.69287L123.515 7.44106Z" fill="#011B39"/>
<path d="M6.11789 39.0801C5.58323 39.0801 5.09094 38.9953 4.64104 38.8258C4.19766 38.6497 3.80971 38.4052 3.47717 38.0923C3.14464 37.7728 2.88708 37.3978 2.70452 36.9675C2.52195 36.5372 2.43066 36.0677 2.43066 35.5591C2.43066 35.0505 2.52195 34.5811 2.70452 34.1507C2.88708 33.7204 3.14464 33.3487 3.47717 33.0358C3.81623 32.7163 4.2107 32.4718 4.6606 32.3022C5.1105 32.1262 5.60279 32.0382 6.13745 32.0382C6.71776 32.0382 7.23938 32.1327 7.70232 32.3218C8.17178 32.5109 8.56626 32.788 8.88575 33.1531L8.08376 33.9356C7.81642 33.6682 7.52627 33.4726 7.2133 33.3487C6.90684 33.2183 6.56779 33.1531 6.19613 33.1531C5.83752 33.1531 5.50498 33.2118 5.19853 33.3292C4.89207 33.4466 4.628 33.6128 4.40631 33.828C4.18462 34.0432 4.01183 34.2975 3.88795 34.5909C3.77058 34.8843 3.7119 35.207 3.7119 35.5591C3.7119 35.9047 3.77058 36.2242 3.88795 36.5176C4.01183 36.811 4.18462 37.0686 4.40631 37.2903C4.628 37.5054 4.88881 37.6717 5.18875 37.7891C5.48868 37.9064 5.82122 37.9651 6.18635 37.9651C6.52541 37.9651 6.85142 37.913 7.1644 37.8086C7.48389 37.6978 7.78708 37.5152 8.07398 37.2609L8.79773 38.2096C8.43911 38.4965 8.02181 38.7149 7.54583 38.8649C7.07637 39.0084 6.60039 39.0801 6.11789 39.0801ZM7.59474 38.0434V35.4809H8.79773V38.2096L7.59474 38.0434Z" fill="#011B39"/>
<path d="M11.0615 34.9821H14.4651V36.0286H11.0615V34.9821ZM11.1593 37.9162H15.0226V38.9823H9.88787V32.136H14.8857V33.202H11.1593V37.9162Z" fill="#011B39"/>
<path d="M17.9755 39.0801C17.4409 39.0801 16.929 39.0051 16.44 38.8551C15.951 38.6986 15.563 38.4998 15.2761 38.2585L15.7162 37.2707C15.9901 37.4859 16.3291 37.6652 16.7334 37.8086C17.1377 37.9521 17.5517 38.0238 17.9755 38.0238C18.3341 38.0238 18.6243 37.9847 18.846 37.9064C19.0677 37.8282 19.2307 37.7239 19.335 37.5935C19.4393 37.4565 19.4915 37.3033 19.4915 37.1338C19.4915 36.9251 19.4165 36.7589 19.2665 36.635C19.1166 36.5046 18.921 36.4035 18.6797 36.3318C18.445 36.2535 18.1809 36.1818 17.8875 36.1166C17.6006 36.0514 17.3105 35.9764 17.017 35.8917C16.7301 35.8004 16.4661 35.6863 16.2248 35.5493C15.9901 35.4059 15.7977 35.2168 15.6478 34.9821C15.4978 34.7474 15.4228 34.4474 15.4228 34.0823C15.4228 33.7106 15.5206 33.3716 15.7162 33.0651C15.9184 32.7521 16.2216 32.5044 16.6258 32.3218C17.0366 32.1327 17.555 32.0382 18.1809 32.0382C18.5917 32.0382 18.9992 32.0903 19.4035 32.1947C19.8077 32.299 20.1598 32.4489 20.4598 32.6446L20.0588 33.6324C19.7523 33.4498 19.4361 33.3161 19.1101 33.2314C18.784 33.1401 18.4711 33.0945 18.1711 33.0945C17.819 33.0945 17.5321 33.1368 17.3105 33.2216C17.0953 33.3064 16.9355 33.4172 16.8312 33.5541C16.7334 33.6911 16.6845 33.8476 16.6845 34.0236C16.6845 34.2322 16.7562 34.4018 16.8997 34.5322C17.0496 34.6561 17.242 34.7539 17.4767 34.8256C17.718 34.8973 17.9853 34.969 18.2787 35.0408C18.5721 35.106 18.8623 35.181 19.1492 35.2657C19.4426 35.3505 19.7067 35.4613 19.9414 35.5982C20.1826 35.7352 20.375 35.921 20.5184 36.1557C20.6684 36.3905 20.7434 36.6871 20.7434 37.0458C20.7434 37.4109 20.6423 37.7499 20.4402 38.0629C20.2446 38.3694 19.9414 38.6171 19.5306 38.8062C19.1198 38.9888 18.6015 39.0801 17.9755 39.0801Z" fill="#011B39"/>
<path d="M22.7106 38.9823V33.2118H20.4416V32.136H26.2511V33.2118H23.9821V38.9823H22.7106Z" fill="#011B39"/>
<path d="M25.3064 38.9823L28.3873 32.136H29.6392L32.7298 38.9823H31.3996L28.7491 32.8108H29.2577L26.617 38.9823H25.3064ZM26.7246 37.3978L27.0669 36.4002H30.7639L31.1062 37.3978H26.7246ZM29.7174 31.5785C29.5609 31.5785 29.4175 31.5491 29.2871 31.4905C29.1632 31.4253 29.0491 31.3503 28.9447 31.2655C28.8469 31.1742 28.7524 31.096 28.6611 31.0308C28.5698 30.9656 28.4785 30.933 28.3873 30.933C28.2503 30.933 28.1395 30.9851 28.0547 31.0895C27.97 31.1938 27.9211 31.3372 27.908 31.5198H27.2527C27.2658 31.1155 27.3636 30.7961 27.5461 30.5613C27.7352 30.3266 27.9895 30.2092 28.309 30.2092C28.4655 30.2092 28.6089 30.2418 28.7394 30.307C28.8698 30.3722 28.9839 30.4472 29.0817 30.532C29.186 30.6167 29.2838 30.6917 29.3751 30.7569C29.4664 30.8221 29.5544 30.8547 29.6392 30.8547C29.7761 30.8547 29.8869 30.8058 29.9717 30.708C30.063 30.6102 30.1119 30.4733 30.1184 30.2973H30.7737C30.7672 30.6754 30.6694 30.9851 30.4803 31.2264C30.2912 31.4611 30.0369 31.5785 29.7174 31.5785Z" fill="#011B39"/>
<path d="M36.1261 39.0801C35.5914 39.0801 35.0992 38.9921 34.6493 38.816C34.1994 38.64 33.8081 38.3955 33.4756 38.0825C33.1431 37.763 32.8855 37.3913 32.703 36.9675C32.5204 36.5372 32.4291 36.0677 32.4291 35.5591C32.4291 35.0505 32.5204 34.5843 32.703 34.1605C32.8855 33.7302 33.1431 33.3585 33.4756 33.0456C33.8081 32.7261 34.1994 32.4783 34.6493 32.3022C35.0992 32.1262 35.5882 32.0382 36.1163 32.0382C36.651 32.0382 37.14 32.1262 37.5834 32.3022C38.0333 32.4783 38.4245 32.7261 38.757 33.0456C39.0896 33.3585 39.3471 33.7302 39.5297 34.1605C39.7123 34.5843 39.8035 35.0505 39.8035 35.5591C39.8035 36.0677 39.7123 36.5372 39.5297 36.9675C39.3471 37.3978 39.0896 37.7695 38.757 38.0825C38.4245 38.3955 38.0333 38.64 37.5834 38.816C37.14 38.9921 36.6542 39.0801 36.1261 39.0801ZM36.1163 37.9651C36.4619 37.9651 36.7814 37.9064 37.0748 37.7891C37.3682 37.6717 37.6225 37.5054 37.8377 37.2903C38.0529 37.0686 38.2191 36.8143 38.3365 36.5274C38.4604 36.234 38.5223 35.9112 38.5223 35.5591C38.5223 35.207 38.4604 34.8875 38.3365 34.6006C38.2191 34.3072 38.0529 34.0529 37.8377 33.8378C37.6225 33.6161 37.3682 33.4466 37.0748 33.3292C36.7814 33.2118 36.4619 33.1531 36.1163 33.1531C35.7708 33.1531 35.4513 33.2118 35.1578 33.3292C34.8709 33.4466 34.6167 33.6161 34.395 33.8378C34.1798 34.0529 34.0103 34.3072 33.8864 34.6006C33.769 34.8875 33.7103 35.207 33.7103 35.5591C33.7103 35.9047 33.769 36.2242 33.8864 36.5176C34.0103 36.811 34.1798 37.0686 34.395 37.2903C34.6101 37.5054 34.8644 37.6717 35.1578 37.7891C35.4513 37.9064 35.7708 37.9651 36.1163 37.9651Z" fill="#011B39"/>
<path d="M42.6806 38.9823V32.136H45.6734C46.4167 32.136 47.0688 32.2794 47.6295 32.5663C48.1903 32.8532 48.6271 33.2509 48.9401 33.7595C49.2531 34.2681 49.4095 34.868 49.4095 35.5591C49.4095 36.2438 49.2531 36.8436 48.9401 37.3587C48.6271 37.8673 48.1903 38.265 47.6295 38.5519C47.0688 38.8388 46.4167 38.9823 45.6734 38.9823H42.6806ZM43.9521 37.9064H45.6147C46.1298 37.9064 46.5732 37.8086 46.9449 37.613C47.323 37.4174 47.6132 37.1436 47.8153 36.7915C48.024 36.4394 48.1283 36.0286 48.1283 35.5591C48.1283 35.0831 48.024 34.6724 47.8153 34.3268C47.6132 33.9747 47.323 33.7008 46.9449 33.5052C46.5732 33.3096 46.1298 33.2118 45.6147 33.2118H43.9521V37.9064Z" fill="#011B39"/>
<path d="M53.3821 39.0801C52.8474 39.0801 52.3551 38.9921 51.9052 38.816C51.4553 38.64 51.0641 38.3955 50.7316 38.0825C50.399 37.763 50.1415 37.3913 49.9589 36.9675C49.7764 36.5372 49.6851 36.0677 49.6851 35.5591C49.6851 35.0505 49.7764 34.5843 49.9589 34.1605C50.1415 33.7302 50.399 33.3585 50.7316 33.0456C51.0641 32.7261 51.4553 32.4783 51.9052 32.3022C52.3551 32.1262 52.8442 32.0382 53.3723 32.0382C53.907 32.0382 54.396 32.1262 54.8394 32.3022C55.2893 32.4783 55.6805 32.7261 56.013 33.0456C56.3456 33.3585 56.6031 33.7302 56.7857 34.1605C56.9682 34.5843 57.0595 35.0505 57.0595 35.5591C57.0595 36.0677 56.9682 36.5372 56.7857 36.9675C56.6031 37.3978 56.3456 37.7695 56.013 38.0825C55.6805 38.3955 55.2893 38.64 54.8394 38.816C54.396 38.9921 53.9102 39.0801 53.3821 39.0801ZM53.3723 37.9651C53.7179 37.9651 54.0374 37.9064 54.3308 37.7891C54.6242 37.6717 54.8785 37.5054 55.0937 37.2903C55.3088 37.0686 55.4751 36.8143 55.5925 36.5274C55.7163 36.234 55.7783 35.9112 55.7783 35.5591C55.7783 35.207 55.7163 34.8875 55.5925 34.6006C55.4751 34.3072 55.3088 34.0529 55.0937 33.8378C54.8785 33.6161 54.6242 33.4466 54.3308 33.3292C54.0374 33.2118 53.7179 33.1531 53.3723 33.1531C53.0267 33.1531 52.7072 33.2118 52.4138 33.3292C52.1269 33.4466 51.8726 33.6161 51.6509 33.8378C51.4358 34.0529 51.2662 34.3072 51.1424 34.6006C51.025 34.8875 50.9663 35.207 50.9663 35.5591C50.9663 35.9047 51.025 36.2242 51.1424 36.5176C51.2662 36.811 51.4358 37.0686 51.6509 37.2903C51.8661 37.5054 52.1204 37.6717 52.4138 37.7891C52.7072 37.9064 53.0267 37.9651 53.3723 37.9651Z" fill="#011B39"/>
<path d="M59.9366 38.9823V32.136H61.208V38.9823H59.9366Z" fill="#011B39"/>
<path d="M62.473 38.9823V32.136H63.5195L67.8131 37.4076H67.2948V32.136H68.5564V38.9823H67.5099L63.2163 33.7106H63.7347V38.9823H62.473Z" fill="#011B39"/>
<path d="M71.7809 38.9823L68.7881 32.136H70.1671L72.8372 38.327H72.045L74.7444 32.136H76.0159L73.0328 38.9823H71.7809Z" fill="#011B39"/>
<path d="M77.3251 34.9821H80.7287V36.0286H77.3251V34.9821ZM77.4229 37.9162H81.2862V38.9823H76.1515V32.136H81.1493V33.202H77.4229V37.9162Z" fill="#011B39"/>
<path d="M84.2391 39.0801C83.7045 39.0801 83.1926 39.0051 82.7036 38.8551C82.2146 38.6986 81.8266 38.4998 81.5397 38.2585L81.9799 37.2707C82.2537 37.4859 82.5928 37.6652 82.997 37.8086C83.4013 37.9521 83.8153 38.0238 84.2391 38.0238C84.5977 38.0238 84.8879 37.9847 85.1096 37.9064C85.3313 37.8282 85.4943 37.7239 85.5986 37.5935C85.7029 37.4565 85.7551 37.3033 85.7551 37.1338C85.7551 36.9251 85.6801 36.7589 85.5302 36.635C85.3802 36.5046 85.1846 36.4035 84.9433 36.3318C84.7086 36.2535 84.4445 36.1818 84.1511 36.1166C83.8642 36.0514 83.5741 35.9764 83.2806 35.8917C82.9938 35.8004 82.7297 35.6863 82.4884 35.5493C82.2537 35.4059 82.0614 35.2168 81.9114 34.9821C81.7614 34.7474 81.6864 34.4474 81.6864 34.0823C81.6864 33.7106 81.7842 33.3716 81.9799 33.0651C82.182 32.7521 82.4852 32.5044 82.8894 32.3218C83.3002 32.1327 83.8186 32.0382 84.4445 32.0382C84.8553 32.0382 85.2628 32.0903 85.6671 32.1947C86.0713 32.299 86.4234 32.4489 86.7234 32.6446L86.3224 33.6324C86.0159 33.4498 85.6997 33.3161 85.3737 33.2314C85.0477 33.1401 84.7347 33.0945 84.4347 33.0945C84.0826 33.0945 83.7958 33.1368 83.5741 33.2216C83.3589 33.3064 83.1991 33.4172 83.0948 33.5541C82.997 33.6911 82.9481 33.8476 82.9481 34.0236C82.9481 34.2322 83.0198 34.4018 83.1633 34.5322C83.3132 34.6561 83.5056 34.7539 83.7403 34.8256C83.9816 34.8973 84.2489 34.969 84.5423 35.0408C84.8357 35.106 85.1259 35.181 85.4128 35.2657C85.7062 35.3505 85.9703 35.4613 86.205 35.5982C86.4463 35.7352 86.6386 35.921 86.782 36.1557C86.932 36.3905 87.007 36.6871 87.007 37.0458C87.007 37.4109 86.9059 37.7499 86.7038 38.0629C86.5082 38.3694 86.205 38.6171 85.7942 38.8062C85.3834 38.9888 84.8651 39.0801 84.2391 39.0801Z" fill="#011B39"/>
<path d="M88.9742 38.9823V33.2118H86.7052V32.136H92.5148V33.2118H90.2457V38.9823H88.9742Z" fill="#011B39"/>
<path d="M92.8821 38.9823V32.136H94.1536V38.9823H92.8821Z" fill="#011B39"/>
<path d="M95.4186 38.9823V32.136H96.4651L99.4579 37.1338H98.9102L101.854 32.136H102.901L102.91 38.9823H101.707L101.698 34.0236H101.952L99.4481 38.1998H98.8808L96.3379 34.0236H96.6313V38.9823H95.4186Z" fill="#011B39"/>
<path d="M105.346 34.9821H108.75V36.0286H105.346V34.9821ZM105.444 37.9162H109.308V38.9823H104.173V32.136H109.171V33.202H105.444V37.9162Z" fill="#011B39"/>
<path d="M110.138 38.9823V32.136H111.185L115.478 37.4076H114.96V32.136H116.222V38.9823H115.175L110.881 33.7106H111.4V38.9823H110.138Z" fill="#011B39"/>
<path d="M118.858 38.9823V33.2118H116.589V32.136H122.399V33.2118H120.13V38.9823H118.858Z" fill="#011B39"/>
<path d="M125.878 39.0801C125.344 39.0801 124.851 38.9921 124.402 38.816C123.952 38.64 123.56 38.3955 123.228 38.0825C122.895 37.763 122.638 37.3913 122.455 36.9675C122.273 36.5372 122.181 36.0677 122.181 35.5591C122.181 35.0505 122.273 34.5843 122.455 34.1605C122.638 33.7302 122.895 33.3585 123.228 33.0456C123.56 32.7261 123.952 32.4783 124.402 32.3022C124.851 32.1262 125.341 32.0382 125.869 32.0382C126.403 32.0382 126.892 32.1262 127.336 32.3022C127.786 32.4783 128.177 32.7261 128.509 33.0456C128.842 33.3585 129.099 33.7302 129.282 34.1605C129.465 34.5843 129.556 35.0505 129.556 35.5591C129.556 36.0677 129.465 36.5372 129.282 36.9675C129.099 37.3978 128.842 37.7695 128.509 38.0825C128.177 38.3955 127.786 38.64 127.336 38.816C126.892 38.9921 126.407 39.0801 125.878 39.0801ZM125.869 37.9651C126.214 37.9651 126.534 37.9064 126.827 37.7891C127.121 37.6717 127.375 37.5054 127.59 37.2903C127.805 37.0686 127.971 36.8143 128.089 36.5274C128.213 36.234 128.275 35.9112 128.275 35.5591C128.275 35.207 128.213 34.8875 128.089 34.6006C127.971 34.3072 127.805 34.0529 127.59 33.8378C127.375 33.6161 127.121 33.4466 126.827 33.3292C126.534 33.2118 126.214 33.1531 125.869 33.1531C125.523 33.1531 125.204 33.2118 124.91 33.3292C124.623 33.4466 124.369 33.6161 124.147 33.8378C123.932 34.0529 123.763 34.3072 123.639 34.6006C123.521 34.8875 123.463 35.207 123.463 35.5591C123.463 35.9047 123.521 36.2242 123.639 36.5176C123.763 36.811 123.932 37.0686 124.147 37.2903C124.362 37.5054 124.617 37.6717 124.91 37.7891C125.204 37.9064 125.523 37.9651 125.869 37.9651Z" fill="#011B39"/>
<path d="M2.91969 50.9022V44.0559H5.73645C6.34284 44.0559 6.8612 44.1537 7.29154 44.3493C7.7284 44.5449 8.0642 44.8253 8.29893 45.1904C8.53366 45.5555 8.65102 45.9891 8.65102 46.4912C8.65102 46.9933 8.53366 47.4269 8.29893 47.792C8.0642 48.1571 7.7284 48.4375 7.29154 48.6331C6.8612 48.8287 6.34284 48.9265 5.73645 48.9265H3.62388L4.19114 48.3299V50.9022H2.91969ZM4.19114 48.4669L3.62388 47.8507H5.67777C6.23851 47.8507 6.65907 47.7333 6.93945 47.4986C7.22634 47.2573 7.36978 46.9215 7.36978 46.4912C7.36978 46.0544 7.22634 45.7186 6.93945 45.4838C6.65907 45.2491 6.23851 45.1317 5.67777 45.1317H3.62388L4.19114 44.5058V48.4669Z" fill="#011B39"/>
<path d="M12.2683 51C11.3293 51 10.5925 50.7359 10.0579 50.2078C9.52973 49.6796 9.26566 48.9168 9.26566 47.9192V44.0559H10.5371V47.8703C10.5371 48.5744 10.6871 49.0863 10.987 49.4058C11.2935 49.7253 11.7238 49.885 12.278 49.885C12.8323 49.885 13.2593 49.7253 13.5593 49.4058C13.8592 49.0863 14.0092 48.5744 14.0092 47.8703V44.0559H15.2611V47.9192C15.2611 48.9168 14.9937 49.6796 14.4591 50.2078C13.9309 50.7359 13.2007 51 12.2683 51ZM11.4565 43.4984L12.7768 42.1585H14.2146L12.5128 43.4984H11.4565Z" fill="#011B39"/>
<path d="M16.4549 50.9022V44.0559H19.6629C20.4844 44.0559 21.1104 44.2189 21.5407 44.5449C21.9711 44.8644 22.1862 45.2947 22.1862 45.8359C22.1862 46.2011 22.1015 46.514 21.9319 46.7748C21.7624 47.0291 21.5342 47.228 21.2473 47.3714C20.9669 47.5084 20.6605 47.5768 20.3279 47.5768L20.504 47.2247C20.8887 47.2247 21.2343 47.2965 21.5407 47.4399C21.8472 47.5768 22.0884 47.779 22.2645 48.0463C22.447 48.3136 22.5383 48.6462 22.5383 49.0439C22.5383 49.6307 22.3134 50.0872 21.8635 50.4132C21.4136 50.7392 20.7452 50.9022 19.8585 50.9022H16.4549ZM17.7264 49.9046H19.7802C20.2562 49.9046 20.6214 49.8263 20.8757 49.6699C21.1299 49.5134 21.2571 49.2623 21.2571 48.9168C21.2571 48.5777 21.1299 48.3299 20.8757 48.1734C20.6214 48.0104 20.2562 47.9289 19.7802 47.9289H17.6285V46.9411H19.526C19.9693 46.9411 20.3084 46.8629 20.5431 46.7064C20.7844 46.5499 20.905 46.3152 20.905 46.0022C20.905 45.6827 20.7844 45.4447 20.5431 45.2882C20.3084 45.1317 19.9693 45.0535 19.526 45.0535H17.7264V49.9046Z" fill="#011B39"/>
<path d="M23.3085 50.9022V44.0559H24.5799V49.8263H28.1596V50.9022H23.3085Z" fill="#011B39"/>
<path d="M28.5765 50.9022V44.0559H29.848V50.9022H28.5765Z" fill="#011B39"/>
<path d="M34.2818 51C33.7602 51 33.2744 50.9152 32.8245 50.7457C32.3811 50.5697 31.9932 50.3251 31.6606 50.0122C31.3346 49.6927 31.0803 49.3178 30.8978 48.8874C30.7152 48.4571 30.6239 47.9876 30.6239 47.479C30.6239 46.9705 30.7152 46.501 30.8978 46.0707C31.0803 45.6403 31.3379 45.2687 31.6704 44.9557C32.003 44.6362 32.3909 44.3917 32.8343 44.2221C33.2777 44.0461 33.7634 43.9581 34.2916 43.9581C34.8523 43.9581 35.3642 44.0559 35.8271 44.2515C36.2901 44.4406 36.6813 44.7242 37.0008 45.1024L36.1792 45.875C35.9314 45.6077 35.6543 45.4088 35.3479 45.2784C35.0414 45.1415 34.7089 45.073 34.3503 45.073C33.9917 45.073 33.6624 45.1317 33.3624 45.2491C33.069 45.3665 32.8115 45.5327 32.5898 45.7479C32.3746 45.9631 32.2051 46.2174 32.0812 46.5108C31.9638 46.8042 31.9052 47.1269 31.9052 47.479C31.9052 47.8311 31.9638 48.1539 32.0812 48.4473C32.2051 48.7407 32.3746 48.995 32.5898 49.2102C32.8115 49.4253 33.069 49.5916 33.3624 49.709C33.6624 49.8263 33.9917 49.885 34.3503 49.885C34.7089 49.885 35.0414 49.8198 35.3479 49.6894C35.6543 49.5525 35.9314 49.3471 36.1792 49.0732L37.0008 49.8557C36.6813 50.2273 36.2901 50.511 35.8271 50.7066C35.3642 50.9022 34.8491 51 34.2818 51Z" fill="#011B39"/>
<path d="M40.6969 51C40.1623 51 39.67 50.912 39.2201 50.7359C38.7702 50.5599 38.379 50.3154 38.0464 50.0024C37.7139 49.6829 37.4563 49.3112 37.2738 48.8874C37.0912 48.4571 36.9999 47.9876 36.9999 47.479C36.9999 46.9705 37.0912 46.5043 37.2738 46.0804C37.4563 45.6501 37.7139 45.2784 38.0464 44.9655C38.379 44.646 38.7702 44.3982 39.2201 44.2221C39.67 44.0461 40.159 43.9581 40.6872 43.9581C41.2218 43.9581 41.7108 44.0461 42.1542 44.2221C42.6041 44.3982 42.9953 44.646 43.3279 44.9655C43.6604 45.2784 43.918 45.6501 44.1005 46.0804C44.2831 46.5043 44.3744 46.9705 44.3744 47.479C44.3744 47.9876 44.2831 48.4571 44.1005 48.8874C43.918 49.3178 43.6604 49.6894 43.3279 50.0024C42.9953 50.3154 42.6041 50.5599 42.1542 50.7359C41.7108 50.912 41.2251 51 40.6969 51ZM40.6872 49.885C41.0327 49.885 41.3522 49.8263 41.6456 49.709C41.939 49.5916 42.1933 49.4253 42.4085 49.2102C42.6237 48.9885 42.7899 48.7342 42.9073 48.4473C43.0312 48.1539 43.0931 47.8311 43.0931 47.479C43.0931 47.1269 43.0312 46.8074 42.9073 46.5206C42.7899 46.2271 42.6237 45.9728 42.4085 45.7577C42.1933 45.536 41.939 45.3665 41.6456 45.2491C41.3522 45.1317 41.0327 45.073 40.6872 45.073C40.3416 45.073 40.0221 45.1317 39.7287 45.2491C39.4418 45.3665 39.1875 45.536 38.9658 45.7577C38.7506 45.9728 38.5811 46.2271 38.4572 46.5206C38.3398 46.8074 38.2812 47.1269 38.2812 47.479C38.2812 47.8246 38.3398 48.1441 38.4572 48.4375C38.5811 48.7309 38.7506 48.9885 38.9658 49.2102C39.181 49.4253 39.4353 49.5916 39.7287 49.709C40.0221 49.8263 40.3416 49.885 40.6872 49.885Z" fill="#011B39"/>
<path d="M47.2514 50.9022V44.0559H50.2442C50.9876 44.0559 51.6396 44.1993 52.2003 44.4862C52.7611 44.7731 53.1979 45.1709 53.5109 45.6794C53.8239 46.188 53.9804 46.7879 53.9804 47.479C53.9804 48.1637 53.8239 48.7635 53.5109 49.2786C53.1979 49.7872 52.7611 50.185 52.2003 50.4718C51.6396 50.7587 50.9876 50.9022 50.2442 50.9022H47.2514ZM48.5229 49.8263H50.1856C50.7007 49.8263 51.144 49.7285 51.5157 49.5329C51.8939 49.3373 52.184 49.0635 52.3862 48.7114C52.5948 48.3593 52.6991 47.9485 52.6991 47.479C52.6991 47.0031 52.5948 46.5923 52.3862 46.2467C52.184 45.8946 51.8939 45.6208 51.5157 45.4251C51.144 45.2295 50.7007 45.1317 50.1856 45.1317H48.5229V49.8263Z" fill="#011B39"/>
<path d="M57.9529 51C57.4182 51 56.926 50.912 56.4761 50.7359C56.0262 50.5599 55.6349 50.3154 55.3024 50.0024C54.9699 49.6829 54.7123 49.3112 54.5298 48.8874C54.3472 48.4571 54.2559 47.9876 54.2559 47.479C54.2559 46.9705 54.3472 46.5043 54.5298 46.0804C54.7123 45.6501 54.9699 45.2784 55.3024 44.9655C55.6349 44.646 56.0262 44.3982 56.4761 44.2221C56.926 44.0461 57.415 43.9581 57.9431 43.9581C58.4778 43.9581 58.9668 44.0461 59.4102 44.2221C59.8601 44.3982 60.2513 44.646 60.5838 44.9655C60.9164 45.2784 61.1739 45.6501 61.3565 46.0804C61.5391 46.5043 61.6304 46.9705 61.6304 47.479C61.6304 47.9876 61.5391 48.4571 61.3565 48.8874C61.1739 49.3178 60.9164 49.6894 60.5838 50.0024C60.2513 50.3154 59.8601 50.5599 59.4102 50.7359C58.9668 50.912 58.4811 51 57.9529 51ZM57.9431 49.885C58.2887 49.885 58.6082 49.8263 58.9016 49.709C59.195 49.5916 59.4493 49.4253 59.6645 49.2102C59.8797 48.9885 60.0459 48.7342 60.1633 48.4473C60.2872 48.1539 60.3491 47.8311 60.3491 47.479C60.3491 47.1269 60.2872 46.8074 60.1633 46.5206C60.0459 46.2271 59.8797 45.9728 59.6645 45.7577C59.4493 45.536 59.195 45.3665 58.9016 45.2491C58.6082 45.1317 58.2887 45.073 57.9431 45.073C57.5976 45.073 57.2781 45.1317 56.9846 45.2491C56.6978 45.3665 56.4435 45.536 56.2218 45.7577C56.0066 45.9728 55.8371 46.2271 55.7132 46.5206C55.5958 46.8074 55.5371 47.1269 55.5371 47.479C55.5371 47.8246 55.5958 48.1441 55.7132 48.4375C55.8371 48.7309 56.0066 48.9885 56.2218 49.2102C56.4369 49.4253 56.6912 49.5916 56.9846 49.709C57.2781 49.8263 57.5976 49.885 57.9431 49.885Z" fill="#011B39"/>
<path d="M65.6811 46.902H69.0847V47.9485H65.6811V46.902ZM65.7789 49.8361H69.6421V50.9022H64.5074V44.0559H69.5052V45.1219H65.7789V49.8361Z" fill="#011B39"/>
<path d="M72.5951 51C72.0604 51 71.5486 50.925 71.0595 50.775C70.5705 50.6186 70.1826 50.4197 69.8957 50.1784L70.3358 49.1906C70.6096 49.4058 70.9487 49.5851 71.3529 49.7285C71.7572 49.872 72.1712 49.9437 72.5951 49.9437C72.9537 49.9437 73.2438 49.9046 73.4655 49.8263C73.6872 49.7481 73.8502 49.6438 73.9545 49.5134C74.0589 49.3764 74.111 49.2232 74.111 49.0537C74.111 48.845 74.0361 48.6788 73.8861 48.5549C73.7361 48.4245 73.5405 48.3234 73.2993 48.2517C73.0645 48.1734 72.8005 48.1017 72.507 48.0365C72.2201 47.9713 71.93 47.8963 71.6366 47.8116C71.3497 47.7203 71.0856 47.6062 70.8444 47.4693C70.6096 47.3258 70.4173 47.1367 70.2673 46.902C70.1174 46.6673 70.0424 46.3673 70.0424 46.0022C70.0424 45.6305 70.1402 45.2915 70.3358 44.985C70.5379 44.672 70.8411 44.4243 71.2454 44.2417C71.6561 44.0526 72.1745 43.9581 72.8005 43.9581C73.2112 43.9581 73.6188 44.0102 74.023 44.1146C74.4273 44.2189 74.7794 44.3689 75.0793 44.5645L74.6783 45.5523C74.3718 45.3697 74.0556 45.2361 73.7296 45.1513C73.4036 45.06 73.0906 45.0144 72.7907 45.0144C72.4386 45.0144 72.1517 45.0567 71.93 45.1415C71.7148 45.2263 71.5551 45.3371 71.4508 45.474C71.353 45.611 71.3041 45.7675 71.3041 45.9435C71.3041 46.1522 71.3758 46.3217 71.5192 46.4521C71.6692 46.576 71.8615 46.6738 72.0963 46.7455C72.3375 46.8172 72.6048 46.8889 72.8983 46.9607C73.1917 47.0259 73.4818 47.1009 73.7687 47.1856C74.0621 47.2704 74.3262 47.3812 74.5609 47.5182C74.8022 47.6551 74.9945 47.8409 75.138 48.0756C75.2879 48.3104 75.3629 48.607 75.3629 48.9657C75.3629 49.3308 75.2619 49.6699 75.0597 49.9828C74.8641 50.2893 74.5609 50.5371 74.1502 50.7261C73.7394 50.9087 73.221 51 72.5951 51Z" fill="#011B39"/>
<path d="M77.3302 50.9022V45.1317H75.0611V44.0559H80.8707V45.1317H78.6016V50.9022H77.3302Z" fill="#011B39"/>
<path d="M79.926 50.9022L83.0068 44.0559H84.2587L87.3493 50.9022H86.0192L83.3687 44.7307H83.8773L81.2365 50.9022H79.926ZM81.3441 49.3178L81.6864 48.3202H85.3834L85.7258 49.3178H81.3441Z" fill="#011B39"/>
<path d="M87.6332 50.9022V44.0559H90.626C91.3693 44.0559 92.0213 44.1993 92.5821 44.4862C93.1428 44.7731 93.5797 45.1709 93.8927 45.6794C94.2056 46.188 94.3621 46.7879 94.3621 47.479C94.3621 48.1637 94.2056 48.7635 93.8927 49.2786C93.5797 49.7872 93.1428 50.185 92.5821 50.4718C92.0213 50.7587 91.3693 50.9022 90.626 50.9022H87.6332ZM88.9046 49.8263H90.5673C91.0824 49.8263 91.5258 49.7285 91.8974 49.5329C92.2756 49.3373 92.5658 49.0635 92.7679 48.7114C92.9766 48.3593 93.0809 47.9485 93.0809 47.479C93.0809 47.0031 92.9766 46.5923 92.7679 46.2467C92.5658 45.8946 92.2756 45.6208 91.8974 45.4251C91.5258 45.2295 91.0824 45.1317 90.5673 45.1317H88.9046V49.8263Z" fill="#011B39"/>
<path d="M98.3347 51C97.8 51 97.3077 50.912 96.8578 50.7359C96.4079 50.5599 96.0167 50.3154 95.6842 50.0024C95.3516 49.6829 95.0941 49.3112 94.9115 48.8874C94.7289 48.4571 94.6376 47.9876 94.6376 47.479C94.6376 46.9705 94.7289 46.5043 94.9115 46.0804C95.0941 45.6501 95.3516 45.2784 95.6842 44.9655C96.0167 44.646 96.4079 44.3982 96.8578 44.2221C97.3077 44.0461 97.7967 43.9581 98.3249 43.9581C98.8595 43.9581 99.3486 44.0461 99.7919 44.2221C100.242 44.3982 100.633 44.646 100.966 44.9655C101.298 45.2784 101.556 45.6501 101.738 46.0804C101.921 46.5043 102.012 46.9705 102.012 47.479C102.012 47.9876 101.921 48.4571 101.738 48.8874C101.556 49.3178 101.298 49.6894 100.966 50.0024C100.633 50.3154 100.242 50.5599 99.7919 50.7359C99.3486 50.912 98.8628 51 98.3347 51ZM98.3249 49.885C98.6704 49.885 98.9899 49.8263 99.2834 49.709C99.5768 49.5916 99.8311 49.4253 100.046 49.2102C100.261 48.9885 100.428 48.7342 100.545 48.4473C100.669 48.1539 100.731 47.8311 100.731 47.479C100.731 47.1269 100.669 46.8074 100.545 46.5206C100.428 46.2271 100.261 45.9728 100.046 45.7577C99.8311 45.536 99.5768 45.3665 99.2834 45.2491C98.9899 45.1317 98.6704 45.073 98.3249 45.073C97.9793 45.073 97.6598 45.1317 97.3664 45.2491C97.0795 45.3665 96.8252 45.536 96.6035 45.7577C96.3883 45.9728 96.2188 46.2271 96.0949 46.5206C95.9776 46.8074 95.9189 47.1269 95.9189 47.479C95.9189 47.8246 95.9776 48.1441 96.0949 48.4375C96.2188 48.7309 96.3883 48.9885 96.6035 49.2102C96.8187 49.4253 97.073 49.5916 97.3664 49.709C97.6598 49.8263 97.9793 49.885 98.3249 49.885Z" fill="#011B39"/>
</svg>
