<svg width="179" height="60" viewBox="0 0 179 60" fill="none" xmlns="http://www.w3.org/2000/svg">
<path d="M34.0412 24.9059C33.6918 24.9059 33.3577 24.8535 33.039 24.7484C32.7201 24.6391 32.4691 24.499 32.2856 24.3284L32.5281 23.8165C32.7027 23.9696 32.9254 24.0965 33.1961 24.1971C33.4669 24.2977 33.7486 24.3481 34.0412 24.3481C34.3076 24.3481 34.5237 24.3174 34.6897 24.2562C34.8556 24.1949 34.9778 24.1118 35.0565 24.0068C35.1351 23.8974 35.1744 23.7749 35.1744 23.6392C35.1744 23.4818 35.1219 23.3549 35.0172 23.2586C34.9167 23.1623 34.7835 23.0857 34.6176 23.0289C34.456 22.9676 34.277 22.9151 34.0804 22.8713C33.884 22.8276 33.6852 22.7773 33.4844 22.7204C33.2878 22.6592 33.1067 22.5826 32.9407 22.4907C32.7792 22.3988 32.6481 22.2763 32.5477 22.1232C32.4473 21.9656 32.397 21.7644 32.397 21.5194C32.397 21.2831 32.4582 21.0666 32.5804 20.8696C32.7071 20.6684 32.8992 20.5087 33.1569 20.3906C33.4189 20.2681 33.7508 20.2068 34.1526 20.2068C34.4189 20.2068 34.683 20.2418 34.9451 20.3118C35.2071 20.3818 35.4341 20.4825 35.6263 20.6137L35.4102 21.1387C35.2136 21.0074 35.0063 20.9134 34.7879 20.8565C34.5695 20.7953 34.3578 20.7647 34.1526 20.7647C33.8949 20.7647 33.6831 20.7974 33.5171 20.8631C33.3512 20.9287 33.2289 21.0162 33.1503 21.1256C33.0761 21.235 33.039 21.3575 33.039 21.4931C33.039 21.6551 33.0891 21.7841 33.1896 21.8804C33.2945 21.9767 33.4276 22.0531 33.5891 22.1101C33.7552 22.167 33.9363 22.2194 34.1329 22.2675C34.3294 22.3113 34.5259 22.3617 34.7224 22.4185C34.9232 22.4754 35.1045 22.5498 35.2661 22.6416C35.432 22.7335 35.5652 22.856 35.6657 23.0092C35.766 23.1623 35.8163 23.3593 35.8163 23.5999C35.8163 23.8318 35.753 24.0483 35.6263 24.2497C35.4997 24.4465 35.3032 24.6062 35.0369 24.7287C34.7748 24.8468 34.4429 24.9059 34.0412 24.9059Z" fill="white"/>
<path d="M49.4373 39.1529C49.0879 39.1529 48.7538 39.1005 48.4351 38.9954C48.1162 38.8861 47.8652 38.7461 47.6817 38.5754L47.9242 38.0635C48.0988 38.2166 48.3215 38.3435 48.5922 38.4442C48.863 38.5447 49.1447 38.5951 49.4373 38.5951C49.7036 38.5951 49.9198 38.5644 50.0858 38.5032C50.2517 38.4419 50.3739 38.3588 50.4526 38.2539C50.5312 38.1444 50.5705 38.0219 50.5705 37.8863C50.5705 37.7288 50.518 37.6019 50.4133 37.5056C50.3128 37.4093 50.1796 37.3327 50.0137 37.2759C49.8521 37.2146 49.6731 37.1621 49.4765 37.1184C49.2801 37.0746 49.0813 37.0243 48.8805 36.9674C48.6839 36.9062 48.5028 36.8296 48.3368 36.7377C48.1753 36.6458 48.0442 36.5233 47.9438 36.3703C47.8434 36.2127 47.7931 36.0114 47.7931 35.7665C47.7931 35.5301 47.8543 35.3136 47.9765 35.1167C48.1032 34.9154 48.2953 34.7557 48.553 34.6376C48.815 34.5151 49.1469 34.4538 49.5487 34.4538C49.815 34.4538 50.0791 34.4888 50.3412 34.5589C50.6032 34.6288 50.8302 34.7295 51.0224 34.8608L50.8063 35.3857C50.6097 35.2544 50.4024 35.1604 50.184 35.1035C49.9656 35.0423 49.7539 35.0117 49.5487 35.0117C49.291 35.0117 49.0792 35.0444 48.9132 35.1101C48.7473 35.1757 48.625 35.2632 48.5464 35.3727C48.4722 35.482 48.4351 35.6045 48.4351 35.7401C48.4351 35.9021 48.4852 36.0311 48.5857 36.1274C48.6906 36.2237 48.8238 36.3002 48.9853 36.3571C49.1513 36.414 49.3324 36.4664 49.529 36.5146C49.7255 36.5583 49.922 36.6087 50.1185 36.6655C50.3193 36.7224 50.5006 36.7968 50.6622 36.8887C50.8281 36.9806 50.9613 37.1031 51.0618 37.2563C51.1621 37.4093 51.2124 37.6063 51.2124 37.8469C51.2124 38.0788 51.1491 38.2954 51.0224 38.4967C50.8958 38.6935 50.6993 38.8533 50.433 38.9757C50.1709 39.0938 49.839 39.1529 49.4373 39.1529Z" fill="white"/>
<path d="M37.3693 22.2413H39.7275V22.7992H37.3693V22.2413ZM37.4283 24.2824H40.1009V24.8535H36.7733V20.2593H40.0091V20.8303H37.4283V24.2824Z" fill="white"/>
<path d="M43.2053 24.9059C42.856 24.9059 42.5328 24.8491 42.2359 24.7352C41.9434 24.6171 41.6878 24.453 41.4695 24.243C41.2555 24.0286 41.0874 23.7793 40.9651 23.4948C40.8428 23.2105 40.7817 22.8977 40.7817 22.5564C40.7817 22.2151 40.8428 21.9022 40.9651 21.6179C41.0874 21.3334 41.2577 21.0863 41.476 20.8763C41.6944 20.6618 41.9499 20.4978 42.2424 20.3839C42.5394 20.2658 42.8625 20.2068 43.2119 20.2068C43.5656 20.2068 43.891 20.2681 44.1879 20.3906C44.4892 20.5087 44.7447 20.6858 44.9543 20.9222L44.5284 21.3356C44.3538 21.1518 44.1573 21.0162 43.9389 20.9287C43.7206 20.8368 43.487 20.7909 43.2381 20.7909C42.9804 20.7909 42.7402 20.8347 42.5175 20.9222C42.2992 21.0097 42.1092 21.1322 41.9476 21.2896C41.7861 21.4472 41.6594 21.6353 41.5677 21.8541C41.4804 22.0684 41.4367 22.3026 41.4367 22.5564C41.4367 22.8101 41.4804 23.0464 41.5677 23.2651C41.6594 23.4795 41.7861 23.6656 41.9476 23.823C42.1092 23.9805 42.2992 24.103 42.5175 24.1905C42.7402 24.278 42.9804 24.3218 43.2381 24.3218C43.487 24.3218 43.7206 24.278 43.9389 24.1905C44.1573 24.0987 44.3538 23.9587 44.5284 23.7705L44.9543 24.184C44.7447 24.4203 44.4892 24.5996 44.1879 24.7222C43.891 24.8447 43.5635 24.9059 43.2053 24.9059Z" fill="white"/>
<path d="M45.8887 24.8535V20.2593H47.677C48.0788 20.2593 48.4216 20.3228 48.7053 20.4496C48.9892 20.5765 49.2076 20.7603 49.3605 21.0009C49.5133 21.2416 49.5896 21.5281 49.5896 21.8607C49.5896 22.1932 49.5133 22.4798 49.3605 22.7204C49.2076 22.9567 48.9892 23.1382 48.7053 23.2651C48.4216 23.392 48.0788 23.4554 47.677 23.4554H46.2491L46.5437 23.1535V24.8535H45.8887ZM48.9543 24.8535L47.7884 23.1864H48.4892L49.6683 24.8535H48.9543ZM46.5437 23.2192L46.2491 22.8977H47.6573C48.0765 22.8977 48.3931 22.8079 48.6071 22.6286C48.8255 22.4448 48.9346 22.1888 48.9346 21.8607C48.9346 21.5325 48.8255 21.2787 48.6071 21.0993C48.3931 20.92 48.0765 20.8303 47.6573 20.8303H46.2491L46.5437 20.5022V23.2192Z" fill="white"/>
<path d="M51.543 22.2413H53.9012V22.7992H51.543V22.2413ZM51.602 24.2824H54.2746V24.8535H50.9469V20.2593H54.1828V20.8303H51.602V24.2824Z" fill="white"/>
<path d="M56.2456 24.8535V20.8303H54.6736V20.2593H58.4663V20.8303H56.8941V24.8535H56.2456Z" fill="white"/>
<path d="M58.5485 24.8535L60.6249 20.2593H61.2734L63.3564 24.8535H62.6686L60.8149 20.6268H61.0769L59.2231 24.8535H58.5485ZM59.4328 23.7049L59.6097 23.1799H62.1905L62.3804 23.7049H59.4328Z" fill="white"/>
<path d="M64.0405 24.8535V20.2593H65.8287C66.2304 20.2593 66.5732 20.3228 66.8571 20.4496C67.141 20.5765 67.3592 20.7603 67.5121 21.0009C67.6649 21.2416 67.7414 21.5281 67.7414 21.8607C67.7414 22.1932 67.6649 22.4798 67.5121 22.7204C67.3592 22.9567 67.141 23.1382 66.8571 23.2651C66.5732 23.392 66.2304 23.4554 65.8287 23.4554H64.4007L64.6955 23.1535V24.8535H64.0405ZM67.106 24.8535L65.9401 23.1864H66.641L67.8199 24.8535H67.106ZM64.6955 23.2192L64.4007 22.8977H65.809C66.2283 22.8977 66.5449 22.8079 66.7589 22.6286C66.9772 22.4448 67.0864 22.1888 67.0864 21.8607C67.0864 21.5325 66.9772 21.2787 66.7589 21.0993C66.5449 20.92 66.2283 20.8303 65.809 20.8303H64.4007L64.6955 20.5022V23.2192Z" fill="white"/>
<path d="M69.0132 24.8535V20.2593H69.6683V24.8535H69.0132Z" fill="white"/>
<path d="M70.3792 24.8535L72.4557 20.2593H73.1042L75.1872 24.8535H74.4995L72.6457 20.6268H72.9077L71.0539 24.8535H70.3792ZM71.2635 23.7049L71.4404 23.1799H74.0212L74.2112 23.7049H71.2635Z" fill="white"/>
<path d="M3 31.9943V27.4001H4.93235C5.42144 27.4001 5.85158 27.4964 6.22277 27.689C6.59833 27.8814 6.88872 28.1505 7.09397 28.4962C7.30358 28.8418 7.40838 29.2422 7.40838 29.6972C7.40838 30.1523 7.30358 30.5526 7.09397 30.8983C6.88872 31.2439 6.59833 31.513 6.22277 31.7056C5.85158 31.898 5.42144 31.9943 4.93235 31.9943H3ZM3.65503 31.4233H4.89305C5.27297 31.4233 5.60049 31.3511 5.8756 31.2067C6.15508 31.0624 6.37124 30.8611 6.52408 30.6029C6.67692 30.3404 6.75335 30.0385 6.75335 29.6972C6.75335 29.3516 6.67692 29.0497 6.52408 28.7915C6.37124 28.5334 6.15508 28.3322 5.8756 28.1877C5.60049 28.0433 5.27297 27.9711 4.89305 27.9711H3.65503V31.4233Z" fill="white"/>
<path d="M10.4817 32.0468C10.1322 32.0468 9.80692 31.9878 9.5056 31.8696C9.20865 31.7514 8.95101 31.5873 8.73267 31.3773C8.51431 31.1629 8.34401 30.9136 8.22174 30.6292C8.09946 30.3448 8.03833 30.0341 8.03833 29.6972C8.03833 29.3603 8.09946 29.0497 8.22174 28.7653C8.34401 28.4809 8.51431 28.2336 8.73267 28.0236C8.95101 27.8092 9.20865 27.643 9.5056 27.5249C9.80256 27.4068 10.1278 27.3476 10.4817 27.3476C10.831 27.3476 11.152 27.4068 11.4445 27.5249C11.7414 27.6386 11.9992 27.8027 12.2174 28.0171C12.4402 28.2271 12.6104 28.4743 12.7283 28.7587C12.8506 29.0431 12.9118 29.356 12.9118 29.6972C12.9118 30.0385 12.8506 30.3513 12.7283 30.6358C12.6104 30.9201 12.4402 31.1696 12.2174 31.384C11.9992 31.594 11.7414 31.758 11.4445 31.8762C11.152 31.9899 10.831 32.0468 10.4817 32.0468ZM10.4817 31.4627C10.7349 31.4627 10.9685 31.419 11.1825 31.3314C11.4008 31.2439 11.5886 31.1214 11.7458 30.9639C11.9074 30.802 12.0319 30.6138 12.1192 30.3994C12.2109 30.185 12.2567 29.951 12.2567 29.6972C12.2567 29.4435 12.2109 29.2094 12.1192 28.995C12.0319 28.7806 11.9074 28.5947 11.7458 28.4371C11.5886 28.2752 11.4008 28.1505 11.1825 28.063C10.9685 27.9755 10.7349 27.9317 10.4817 27.9317C10.2239 27.9317 9.98597 27.9755 9.76761 28.063C9.55365 28.1505 9.36586 28.2752 9.20429 28.4371C9.04272 28.5947 8.91608 28.7806 8.82437 28.995C8.73703 29.2094 8.69336 29.4435 8.69336 29.6972C8.69336 29.951 8.73703 30.185 8.82437 30.3994C8.91608 30.6138 9.04272 30.802 9.20429 30.9639C9.36586 31.1214 9.55365 31.2439 9.76761 31.3314C9.98597 31.419 10.2239 31.4627 10.4817 31.4627Z" fill="white"/>
<path d="M15.8081 31.9943V27.4001H17.7929C18.2034 27.4001 18.5571 27.468 18.854 27.6036C19.1509 27.7349 19.3802 27.9252 19.5418 28.1746C19.7034 28.4239 19.7841 28.7216 19.7841 29.0672C19.7841 29.4085 19.7034 29.7037 19.5418 29.9532C19.3802 30.2026 19.1509 30.395 18.854 30.5307C18.5571 30.662 18.2034 30.7277 17.7929 30.7277H16.3977L16.8693 30.2485V31.9943H15.8081ZM16.8693 30.3667L16.3977 29.8613H17.7339C18.0614 29.8613 18.306 29.7912 18.4676 29.6513C18.6291 29.5113 18.7099 29.3166 18.7099 29.0672C18.7099 28.8133 18.6291 28.6165 18.4676 28.4765C18.306 28.3365 18.0614 28.2665 17.7339 28.2665H16.3977L16.8693 27.7611V30.3667Z" fill="white"/>
<path d="M20.4482 31.9943V27.4001H21.5094V31.128H23.5758V31.9943H20.4482Z" fill="white"/>
<path d="M23.8244 31.9943L25.8681 27.4001H26.9162L28.9664 31.9943H27.8528L26.1759 27.9384H26.5952L24.9118 31.9943H23.8244ZM24.8463 31.0099L25.1279 30.2026H27.4861L27.7743 31.0099H24.8463Z" fill="white"/>
<path d="M29.678 31.9943V27.4001H30.5558L33.2612 30.708H32.8353V27.4001H33.8834V31.9943H33.0122L30.3003 28.6865H30.7261V31.9943H29.678Z" fill="white"/>
<path d="M36.0453 29.2509H38.2527V30.0779H36.0453V29.2509ZM36.124 31.1411H38.6196V31.9943H35.0693V27.4001H38.5345V28.2533H36.124V31.1411Z" fill="white"/>
<path d="M40.71 32.073C40.3999 32.073 40.1139 32.0161 39.8519 31.9024C39.5942 31.7843 39.3824 31.618 39.2164 31.4037L39.806 30.6948C39.9327 30.8611 40.0659 30.9879 40.2056 31.0754C40.3453 31.1586 40.496 31.2002 40.6575 31.2002C41.0899 31.2002 41.306 30.9464 41.306 30.4388V28.2533H39.6947V27.4001H42.3607V30.3797C42.3607 30.9486 42.2209 31.3729 41.9415 31.653C41.6619 31.933 41.2515 32.073 40.71 32.073Z" fill="white"/>
<path d="M42.8863 31.9943L44.93 27.4001H45.978L48.0283 31.9943H46.9147L45.2378 27.9384H45.6571L43.9736 31.9943H42.8863ZM43.9081 31.0099L44.1898 30.2026H46.5479L46.8361 31.0099H43.9081Z" fill="white"/>
<path d="M48.504 31.9943V27.4001H49.3818L51.3338 30.6423H50.8687L52.7879 27.4001H53.6592L53.6722 31.9943H52.6765L52.67 28.9293H52.8534L51.3206 31.5086H50.8425L49.2769 28.9293H49.4997V31.9943H48.504Z" fill="white"/>
<path d="M55.7146 29.2509H57.922V30.0779H55.7146V29.2509ZM55.7933 31.1411H58.2889V31.9943H54.7386V27.4001H58.2038V28.2533H55.7933V31.1411Z" fill="white"/>
<path d="M59.3607 31.9943V27.4001H60.2385L62.9438 30.708H62.518V27.4001H63.566V31.9943H62.6949L59.983 28.6865H60.4088V31.9943H59.3607Z" fill="white"/>
<path d="M65.7338 31.9943V28.2665H64.2665V27.4001H68.2622V28.2665H66.795V31.9943H65.7338Z" fill="white"/>
<path d="M70.9964 32.073C70.634 32.073 70.2977 32.014 69.9877 31.8959C69.682 31.7777 69.4155 31.6114 69.1885 31.397C68.9658 31.1826 68.7911 30.9311 68.6646 30.6423C68.5423 30.3535 68.4811 30.0385 68.4811 29.6972C68.4811 29.356 68.5423 29.0409 68.6646 28.7522C68.7911 28.4634 68.968 28.2118 69.195 27.9974C69.4222 27.783 69.6885 27.6168 69.9942 27.4986C70.3 27.3805 70.6318 27.3214 70.9899 27.3214C71.3524 27.3214 71.6843 27.3805 71.9856 27.4986C72.2912 27.6168 72.5554 27.783 72.7782 27.9974C73.0052 28.2118 73.1821 28.4634 73.3088 28.7522C73.4353 29.0365 73.4987 29.3516 73.4987 29.6972C73.4987 30.0385 73.4353 30.3557 73.3088 30.6489C73.1821 30.9377 73.0052 31.1893 72.7782 31.4037C72.5554 31.6137 72.2912 31.7777 71.9856 31.8959C71.6843 32.014 71.3545 32.073 70.9964 32.073ZM70.9899 31.1673C71.1951 31.1673 71.383 31.1324 71.5532 31.0624C71.7279 30.9923 71.8807 30.8916 72.0118 30.7604C72.1427 30.6292 72.2432 30.4739 72.3131 30.2945C72.3873 30.1151 72.4244 29.916 72.4244 29.6972C72.4244 29.4784 72.3873 29.2794 72.3131 29.0999C72.2432 28.9207 72.1427 28.7653 72.0118 28.6341C71.8851 28.5028 71.7344 28.4021 71.5597 28.3322C71.3851 28.2621 71.1951 28.2271 70.9899 28.2271C70.7847 28.2271 70.5946 28.2621 70.42 28.3322C70.2497 28.4021 70.099 28.5028 69.9681 28.6341C69.837 28.7653 69.7344 28.9207 69.6601 29.0999C69.5903 29.2794 69.5554 29.4784 69.5554 29.6972C69.5554 29.9116 69.5903 30.1107 69.6601 30.2945C69.7344 30.4739 69.8349 30.6292 69.9614 30.7604C70.0925 30.8916 70.2453 30.9923 70.42 31.0624C70.5946 31.1324 70.7847 31.1673 70.9899 31.1673Z" fill="white"/>
<path d="M52.8607 38.482V37.0581H55.1599V36.4409H52.8607V35.0892H55.4416V34.4589H52.1465V39.1124H55.5333V38.482H52.8607ZM56.5346 39.1124H57.249V37.721H58.3525C58.7573 37.721 59.1044 37.6571 59.3931 37.528C59.6815 37.3947 59.9046 37.2073 60.0609 36.9658C60.2172 36.7197 60.2949 36.4272 60.2949 36.0899C60.2949 35.7527 60.2173 35.4604 60.061 35.2143C59.9047 34.9682 59.6817 34.7809 59.3931 34.6518C59.1044 34.5228 58.7573 34.4589 58.3525 34.4589H56.5346V39.1124ZM58.3329 37.0906H57.249V35.0892H58.3329C58.7485 35.0892 59.0572 35.1782 59.2637 35.3513C59.474 35.5241 59.5806 35.7691 59.5806 36.0899C59.5806 36.4108 59.4742 36.6554 59.2639 36.8283C59.0574 37.0014 58.7485 37.0906 58.3329 37.0906ZM61.1979 39.1124H65.1166L65.1243 39.0946L65.6203 37.9638H68.0196L68.5156 39.0946L68.5233 39.1124H69.2764L69.2574 39.0704L67.1744 34.4762L67.1666 34.4589H66.4798L66.472 34.4763L64.3955 39.0705L64.3949 39.072V38.482H61.9123V34.4589H61.1979V39.1124ZM66.8199 35.2285L67.7633 37.3795H65.8766L66.8199 35.2285ZM69.8848 39.1124H70.5991V35.7436L73.2976 39.1012L73.3065 39.1124H73.8874V34.4589H73.173V37.8277L70.4658 34.4589H69.8848V39.1124Z" fill="white"/>
<path fill-rule="evenodd" clip-rule="evenodd" d="M105.251 15.783C109.565 13.7431 113.856 12.1943 118.09 11.8859C118.124 11.1739 118.157 10.4678 118.189 9.7676C113.95 10.1957 109.666 11.5759 105.358 13.4804C105.323 14.2463 105.287 15.0139 105.251 15.783Z" fill="white"/>
<path fill-rule="evenodd" clip-rule="evenodd" d="M116.626 6.36618C116.595 7.03355 116.563 7.70781 116.532 8.38902C113.302 8.90377 110.051 9.89514 106.785 11.1925L106.889 8.95934C110.149 7.79456 113.394 6.92631 116.626 6.36618Z" fill="white"/>
<path fill-rule="evenodd" clip-rule="evenodd" d="M111.236 4.09336C112.78 3.71012 114.323 3.35847 115.867 3C115.861 3.65153 115.855 4.30958 115.85 4.97443C114.281 5.30047 112.712 5.67147 111.142 6.10309L111.236 4.09336Z" fill="white"/>
<path fill-rule="evenodd" clip-rule="evenodd" d="M118.138 13.4872C114.178 13.7053 110.164 15.0978 106.127 16.9853C106.092 17.7473 106.056 18.5119 106.021 19.279C110.062 17.2968 114.082 15.7883 118.037 15.6593C118.07 14.9294 118.105 14.2053 118.138 13.4872Z" fill="white"/>
<path fill-rule="evenodd" clip-rule="evenodd" d="M104.03 24.1907C109.049 21.5081 114.051 19.1935 118.931 19.5152C118.966 18.7628 119.001 18.0152 119.035 17.2721C114.15 17.0615 109.155 19.2298 104.139 21.8475C104.103 22.6277 104.067 23.4088 104.03 24.1907Z" fill="white"/>
<path fill-rule="evenodd" clip-rule="evenodd" d="M118.207 23.3411C111.952 23.04 105.478 27.4647 99.0587 30.6947L99.1688 28.3271C105.588 25.0907 112.056 20.8077 118.312 21.0652C118.278 21.8184 118.242 22.5771 118.207 23.3411Z" fill="white"/>
<path fill-rule="evenodd" clip-rule="evenodd" d="M119.376 25.1713C119.341 25.9436 119.305 26.7194 119.268 27.4993C108.602 25.9979 97.2454 39.3336 86.5783 37.8398L87.0378 35.5865C97.6012 36.7665 108.832 23.5889 119.376 25.1713Z" fill="white"/>
<path fill-rule="evenodd" clip-rule="evenodd" d="M121.393 29.6889C121.357 30.4735 121.319 31.2582 121.284 32.0428C115.261 29.815 108.963 33.5022 102.687 36.7269C96.4395 40.0365 90.2137 42.8872 84.1872 41.4426L84.6437 39.2031C96.5864 42.6395 109.478 25.645 121.393 29.6889Z" fill="white"/>
<path fill-rule="evenodd" clip-rule="evenodd" d="M120.245 33.5184C120.208 34.3072 120.171 35.0977 120.134 35.8902C114.353 34.4838 108.343 38.0151 102.363 40.8896C96.3977 43.8872 90.4637 46.2318 84.6687 45.5768L85.127 43.3268C90.7964 44.1519 96.6227 41.5882 102.472 38.54C108.458 35.5187 114.469 31.991 120.245 33.5184Z" fill="white"/>
<path fill-rule="evenodd" clip-rule="evenodd" d="M98.798 51.7757C98.7642 52.5109 98.7299 53.2429 98.6961 53.9718C95.2652 54.996 91.8506 55.663 88.4347 56.3597L88.8512 54.3152C92.155 53.7223 95.4684 52.9256 98.798 51.7757Z" fill="white"/>
<path fill-rule="evenodd" clip-rule="evenodd" d="M118.701 39.7219C113.17 39.2496 107.463 42.5646 101.796 45.0232C95.9974 47.7121 90.2399 49.5059 84.5673 49.4761L85.0288 47.2123C90.5688 47.5365 96.22 45.4786 101.905 42.6864C107.581 40.0374 113.29 36.6572 118.813 37.2943L118.701 39.7219Z" fill="white"/>
<path fill-rule="evenodd" clip-rule="evenodd" d="M110.997 45.313C107.436 46.5273 103.853 48.2545 100.287 49.5836C95.7723 51.3493 91.2872 52.4764 86.8258 53.0938L87.2616 50.9529C91.603 50.5102 95.9848 49.1969 100.394 47.3034C103.965 45.8254 107.556 43.9678 111.117 42.7307L110.997 45.313Z" fill="white"/>
<path fill-rule="evenodd" clip-rule="evenodd" d="M170.846 25.5992V35.4393H174.62V23.1691L170.846 25.5992Z" fill="white"/>
<path fill-rule="evenodd" clip-rule="evenodd" d="M174.62 22.0709H170.846V24.5009L174.62 22.0709Z" fill="white"/>
<path fill-rule="evenodd" clip-rule="evenodd" d="M158.923 34.1242C157.825 33.0423 157.275 31.5081 157.275 29.5218V22.1119H161.049V29.4071C161.049 31.5462 161.894 32.6156 163.583 32.6156C165.261 32.6156 166.1 31.5462 166.1 29.4071V22.1119H169.816V29.5218C169.816 31.5081 169.267 33.0423 168.168 34.1242C167.068 35.2066 165.528 35.7477 163.545 35.7477C161.563 35.7477 160.023 35.2066 158.923 34.1242Z" fill="white"/>
<path fill-rule="evenodd" clip-rule="evenodd" d="M153.159 32.883H147.517L146.469 35.4803H142.618L148.508 22.1119H152.225L158.133 35.4803H154.206L153.159 32.883ZM152.052 30.0947L150.337 25.8167L148.622 30.0947H152.052Z" fill="white"/>
<path fill-rule="evenodd" clip-rule="evenodd" d="M138.14 22.1118H141.913V35.4803H138.14V22.1118Z" fill="white"/>
<path fill-rule="evenodd" clip-rule="evenodd" d="M134.671 22.7133C135.561 23.1146 136.246 23.6873 136.729 24.4321C137.212 25.177 137.453 26.0526 137.453 27.0583C137.453 28.064 137.212 28.9362 136.729 29.6745C136.246 30.4131 135.561 30.9826 134.671 31.3839C133.781 31.7848 132.733 31.9855 131.526 31.9855H129.201V35.4803H125.427V22.1119H131.526C132.733 22.1119 133.781 22.3124 134.671 22.7133ZM133.051 28.5C133.444 28.1629 133.641 27.6822 133.641 27.0583C133.641 26.4345 133.444 25.9506 133.051 25.6067C132.656 25.2631 132.072 25.091 131.297 25.091H129.201V29.0062H131.297C132.072 29.0062 132.656 28.8377 133.051 28.5Z" fill="white"/>
<path fill-rule="evenodd" clip-rule="evenodd" d="M174.865 16.721C174.65 16.3613 174.354 16.0793 173.978 15.8752C173.602 15.6711 173.179 15.5693 172.711 15.5693C172.241 15.5693 171.82 15.6711 171.443 15.8752C171.066 16.0793 170.77 16.3625 170.555 16.7242C170.341 17.0864 170.234 17.4912 170.234 17.9389C170.234 18.3863 170.341 18.7913 170.555 19.1533C170.77 19.5153 171.066 19.7982 171.443 20.0023C171.82 20.2064 172.241 20.3085 172.711 20.3085C173.179 20.3085 173.602 20.2064 173.978 20.0023C174.354 19.7982 174.65 19.5164 174.865 19.1564C175.079 18.7968 175.187 18.3907 175.187 17.9389C175.187 17.4868 175.079 17.081 174.865 16.721ZM174.116 18.7715C173.976 19.0194 173.784 19.2126 173.538 19.3506C173.292 19.4891 173.017 19.5581 172.711 19.5581C172.404 19.5581 172.128 19.4891 171.882 19.3506C171.637 19.2126 171.445 19.0194 171.304 18.7715C171.164 18.5236 171.094 18.2459 171.094 17.9389C171.094 17.6316 171.164 17.3541 171.304 17.106C171.445 16.8583 171.637 16.6651 171.882 16.5269C172.128 16.3887 172.404 16.3194 172.711 16.3194C173.017 16.3194 173.292 16.3887 173.538 16.5269C173.784 16.6651 173.976 16.8583 174.116 17.106C174.256 17.3541 174.327 17.6316 174.327 17.9389C174.327 18.2459 174.256 18.5236 174.116 18.7715Z" fill="white"/>
<path fill-rule="evenodd" clip-rule="evenodd" d="M168.19 15.9213C167.81 15.7304 167.374 15.6349 166.883 15.6349H164.873V20.2425H166.883C167.374 20.2425 167.81 20.1472 168.19 19.9564C168.572 19.7654 168.867 19.4955 169.078 19.1465C169.288 18.7978 169.393 18.3951 169.393 17.9388C169.393 17.4823 169.288 17.0797 169.078 16.731C168.867 16.382 168.572 16.1121 168.19 15.9213ZM168.325 18.7715C168.187 19.0105 167.99 19.195 167.734 19.3243C167.477 19.4538 167.181 19.5185 166.844 19.5185H165.727V16.359H166.844C167.181 16.359 167.477 16.4238 167.734 16.5532C167.99 16.6826 168.187 16.867 168.325 17.106C168.463 17.3455 168.532 17.6227 168.532 17.9388C168.532 18.2548 168.463 18.5323 168.325 18.7715Z" fill="white"/>
<path fill-rule="evenodd" clip-rule="evenodd" d="M160.42 15.8753C160.043 15.6711 159.62 15.5692 159.152 15.5692C158.683 15.5692 158.26 15.6711 157.884 15.8753C157.507 16.0794 157.211 16.3625 156.997 16.7241C156.782 17.0862 156.674 17.4912 156.674 17.9388C156.674 18.3864 156.782 18.7913 156.997 19.1532C157.211 19.5154 157.507 19.7981 157.884 20.0022C158.26 20.2062 158.683 20.3086 159.152 20.3086C159.62 20.3086 160.043 20.2062 160.42 20.0022C160.795 19.7981 161.092 19.5162 161.306 19.1565C161.52 18.7967 161.628 18.3907 161.628 17.9388C161.628 17.4867 161.52 17.0809 161.306 16.7211C161.092 16.3613 160.795 16.0794 160.42 15.8753ZM160.557 18.7716C160.417 19.0194 160.224 19.2125 159.979 19.3506C159.734 19.489 159.458 19.558 159.152 19.558C158.845 19.558 158.569 19.489 158.324 19.3506C158.078 19.2125 157.886 19.0194 157.745 18.7716C157.606 18.5236 157.536 18.2458 157.536 17.9388C157.536 17.6317 157.606 17.3541 157.745 17.106C157.886 16.8582 158.078 16.6651 158.324 16.527C158.569 16.3888 158.845 16.3194 159.152 16.3194C159.458 16.3194 159.734 16.3888 159.979 16.527C160.224 16.6651 160.417 16.8582 160.557 17.106C160.697 17.3541 160.768 17.6317 160.768 17.9388C160.768 18.2458 160.697 18.5236 160.557 18.7716Z" fill="white"/>
<path fill-rule="evenodd" clip-rule="evenodd" d="M154.658 18.7551L152.123 15.635H151.419V20.2426H152.268V17.1225L154.802 20.2426H155.506V15.635H154.658V18.7551Z" fill="white"/>
<path fill-rule="evenodd" clip-rule="evenodd" d="M149.952 18.1691C150.121 17.919 150.205 17.6206 150.205 17.2741C150.205 16.936 150.125 16.6444 149.968 16.3984C149.811 16.1528 149.584 15.9643 149.289 15.8325C148.993 15.7009 148.645 15.6349 148.247 15.6349H146.355V20.2425H147.209V18.8998H148.247C148.327 18.8998 148.385 18.8976 148.424 18.8931L149.363 20.2425H150.283L149.226 18.7287C149.541 18.6058 149.783 18.4193 149.952 18.1691ZM148.207 18.1953H147.209V16.359H148.207C148.58 16.359 148.862 16.4381 149.055 16.5959C149.247 16.7539 149.345 16.98 149.345 17.2741C149.345 17.5679 149.247 17.7952 149.055 17.9554C148.862 18.1155 148.58 18.1953 148.207 18.1953Z" fill="white"/>
<path fill-rule="evenodd" clip-rule="evenodd" d="M142.546 18.2548H144.766V17.5505H142.546V16.3525H145.048V15.6349H141.691V20.2425H145.139V19.525H142.546V18.2548Z" fill="white"/>
<path fill-rule="evenodd" clip-rule="evenodd" d="M138.544 19.1894L137.013 15.6349H136.088L138.098 20.2425H138.938L140.941 15.6349H140.088L138.544 19.1894Z" fill="white"/>
<path fill-rule="evenodd" clip-rule="evenodd" d="M134.504 15.8753C134.127 15.6711 133.705 15.5692 133.236 15.5692C132.768 15.5692 132.345 15.6711 131.968 15.8753C131.591 16.0794 131.296 16.3625 131.082 16.7241C130.867 17.0862 130.759 17.4912 130.759 17.9388C130.759 18.3864 130.867 18.7913 131.082 19.1532C131.296 19.5154 131.591 19.7981 131.968 20.0022C132.345 20.2062 132.768 20.3086 133.236 20.3086C133.705 20.3086 134.127 20.2062 134.504 20.0022C134.881 19.7981 135.177 19.5162 135.391 19.1565C135.606 18.7967 135.713 18.3907 135.713 17.9388C135.713 17.4867 135.606 17.0809 135.391 16.7211C135.177 16.3613 134.881 16.0794 134.504 15.8753ZM134.642 18.7716C134.503 19.0194 134.309 19.2125 134.064 19.3506C133.819 19.489 133.543 19.558 133.236 19.558C132.93 19.558 132.654 19.489 132.409 19.3506C132.164 19.2125 131.97 19.0194 131.831 18.7716C131.69 18.5236 131.621 18.2458 131.621 17.9388C131.621 17.6317 131.69 17.3541 131.831 17.106C131.97 16.8582 132.164 16.6651 132.409 16.527C132.654 16.3888 132.93 16.3194 133.236 16.3194C133.543 16.3194 133.819 16.3888 134.064 16.527C134.309 16.6651 134.503 16.8582 134.642 17.106C134.782 17.3541 134.852 17.6317 134.852 17.9388C134.852 18.2458 134.782 18.5236 134.642 18.7716Z" fill="white"/>
<path fill-rule="evenodd" clip-rule="evenodd" d="M127.091 16.5235C127.343 16.3876 127.631 16.3194 127.955 16.3194C128.45 16.3194 128.872 16.495 129.223 16.8462L129.762 16.3194C129.547 16.0738 129.282 15.8873 128.967 15.7601C128.651 15.6327 128.301 15.5693 127.916 15.5693C127.443 15.5693 127.016 15.6711 126.637 15.8752C126.259 16.0793 125.962 16.3613 125.747 16.721C125.533 17.081 125.426 17.4868 125.426 17.9389C125.426 18.3907 125.533 18.7968 125.747 19.1564C125.962 19.5164 126.258 19.7982 126.635 20.0023C127.012 20.2064 127.433 20.3085 127.903 20.3085C128.234 20.3085 128.559 20.2578 128.874 20.157C129.189 20.0561 129.465 19.9112 129.702 19.7226V17.8863H128.894V19.3212C128.623 19.4791 128.308 19.5581 127.948 19.5581C127.629 19.5581 127.343 19.4878 127.091 19.3475C126.839 19.2069 126.642 19.014 126.5 18.768C126.358 18.5225 126.286 18.2459 126.286 17.9389C126.286 17.6227 126.358 17.342 126.5 17.0962C126.642 16.8506 126.839 16.6597 127.091 16.5235Z" fill="white"/>
<path fill-rule="evenodd" clip-rule="evenodd" d="M167.521 45.8696C167.463 45.8133 167.434 45.7421 167.434 45.6556C167.434 45.572 167.463 45.5021 167.521 45.4456C167.578 45.3894 167.648 45.3613 167.728 45.3613C167.809 45.3613 167.876 45.3887 167.931 45.4435C167.985 45.4984 168.013 45.5692 168.013 45.6556C168.013 45.7421 167.985 45.8133 167.928 45.8696C167.873 45.926 167.805 45.9538 167.728 45.9538C167.648 45.9538 167.578 45.926 167.521 45.8696Z" fill="white"/>
<path fill-rule="evenodd" clip-rule="evenodd" d="M164.697 45.7767C164.445 45.6413 164.248 45.4544 164.106 45.2165C163.964 44.9787 163.893 44.7113 163.893 44.4141C163.893 44.1171 163.964 43.8498 164.106 43.6118C164.248 43.3741 164.445 43.1872 164.697 43.0514C164.95 42.916 165.232 42.8484 165.546 42.8484C165.86 42.8484 166.142 42.916 166.392 43.0514C166.642 43.1872 166.839 43.3741 166.983 43.6118C167.126 43.8498 167.2 44.1171 167.2 44.4141C167.2 44.7113 167.126 44.9787 166.983 45.2165C166.839 45.4544 166.642 45.6413 166.392 45.7767C166.142 45.9124 165.86 45.9799 165.546 45.9799C165.232 45.9799 164.95 45.9124 164.697 45.7767ZM166.029 45.2598C166.172 45.1776 166.286 45.063 166.368 44.9158C166.45 44.7688 166.491 44.6017 166.491 44.4141C166.491 44.2268 166.45 44.0594 166.368 43.9123C166.286 43.7653 166.172 43.6507 166.029 43.5683C165.884 43.4862 165.724 43.4452 165.546 43.4452C165.367 43.4452 165.205 43.4862 165.062 43.5683C164.918 43.6507 164.805 43.7653 164.723 43.9123C164.641 44.0594 164.6 44.2268 164.6 44.4141C164.6 44.6017 164.641 44.7688 164.723 44.9158C164.805 45.063 164.918 45.1776 165.062 45.2598C165.205 45.3419 165.367 45.3829 165.546 45.3829C165.724 45.3829 165.884 45.3419 166.029 45.2598Z" fill="white"/>
<path fill-rule="evenodd" clip-rule="evenodd" d="M162.856 45.9281L162.273 45.0845H161.631V45.9281H160.93V42.9H162.239C162.506 42.9 162.739 42.9449 162.936 43.0343C163.133 43.1236 163.285 43.2504 163.391 43.415C163.497 43.5793 163.551 43.7738 163.551 43.9989C163.551 44.2238 163.497 44.4179 163.389 44.5806C163.281 44.7436 163.128 44.8683 162.929 44.9547L163.607 45.9281H162.856ZM162.678 43.6074C162.569 43.5166 162.41 43.4712 162.199 43.4712H161.631V44.5265H162.199C162.41 44.5265 162.569 44.4806 162.678 44.388C162.788 44.2959 162.843 44.1662 162.843 43.9989C162.843 43.8287 162.788 43.6983 162.678 43.6074Z" fill="white"/>
<path fill-rule="evenodd" clip-rule="evenodd" d="M157.866 45.6209C157.626 45.3817 157.506 45.04 157.506 44.5958V42.9H158.205V44.5697C158.205 45.1121 158.43 45.3829 158.878 45.3829C159.097 45.3829 159.264 45.3175 159.379 45.1864C159.494 45.0549 159.552 44.8498 159.552 44.5697V42.9H160.243V44.5958C160.243 45.04 160.122 45.3817 159.882 45.6209C159.642 45.8604 159.306 45.98 158.875 45.98C158.442 45.98 158.107 45.8604 157.866 45.6209Z" fill="white"/>
<path fill-rule="evenodd" clip-rule="evenodd" d="M155.505 43.4713H154.538V42.9H157.172V43.4713H156.205V45.9281H155.505V43.4713Z" fill="white"/>
<path fill-rule="evenodd" clip-rule="evenodd" d="M151.827 45.6209C151.586 45.3817 151.467 45.04 151.467 44.5958V42.9H152.166V44.5697C152.166 45.1121 152.39 45.3829 152.84 45.3829C153.058 45.3829 153.225 45.3175 153.34 45.1864C153.455 45.0549 153.513 44.8498 153.513 44.5697V42.9H154.204V44.5958C154.204 45.04 154.083 45.3817 153.842 45.6209C153.602 45.8604 153.266 45.98 152.835 45.98C152.404 45.98 152.067 45.8604 151.827 45.6209Z" fill="white"/>
<path fill-rule="evenodd" clip-rule="evenodd" d="M149.449 43.4626V44.2628H150.847V44.8249H149.449V45.9281H148.749V42.9H151.033V43.4626H149.449Z" fill="white"/>
<path fill-rule="evenodd" clip-rule="evenodd" d="M146.362 45.9281L146.357 43.722L145.265 45.5605H145.067L143.975 43.7349V45.9281H143.56V42.9H143.914L145.175 45.0283L146.418 42.9H146.772L146.776 45.9281H146.362Z" fill="white"/>
<path fill-rule="evenodd" clip-rule="evenodd" d="M142.977 45.5517V45.928H140.785V42.9H142.916V43.2765H141.216V44.2065H142.732V44.574H141.216V45.5517H142.977Z" fill="white"/>
<path fill-rule="evenodd" clip-rule="evenodd" d="M138.889 43.2765H137.853V42.9H140.352V43.2765H139.317V45.928H138.889V43.2765Z" fill="white"/>
<path fill-rule="evenodd" clip-rule="evenodd" d="M135.789 42.9H136.222V45.9281H135.789V42.9Z" fill="white"/>
<path fill-rule="evenodd" clip-rule="evenodd" d="M132.756 45.6167C132.532 45.3858 132.419 45.0542 132.419 44.6216V42.9H132.851V44.6044C132.851 45.2533 133.134 45.5776 133.702 45.5776C133.978 45.5776 134.19 45.4977 134.335 45.3376C134.482 45.1776 134.556 44.9332 134.556 44.6044V42.9H134.975V44.6216C134.975 45.0572 134.863 45.3895 134.639 45.6186C134.414 45.8482 134.1 45.9626 133.697 45.9626C133.294 45.9626 132.98 45.8474 132.756 45.6167Z" fill="white"/>
<path fill-rule="evenodd" clip-rule="evenodd" d="M132.004 46.2049C131.905 46.3202 131.791 46.4082 131.662 46.4688C131.533 46.5292 131.393 46.5598 131.244 46.5598C131.053 46.5598 130.876 46.5142 130.711 46.4235C130.545 46.3327 130.357 46.1776 130.143 45.9582C129.858 45.9438 129.602 45.8674 129.372 45.729C129.143 45.5906 128.965 45.407 128.838 45.1776C128.708 44.9485 128.644 44.6938 128.644 44.4142C128.644 44.1229 128.714 43.8589 128.854 43.6224C128.994 43.3859 129.186 43.2007 129.43 43.0666C129.675 42.9326 129.95 42.8655 130.255 42.8655C130.557 42.8655 130.831 42.9326 131.076 43.0666C131.32 43.2007 131.512 43.3852 131.649 43.6202C131.788 43.8556 131.857 44.12 131.857 44.4142C131.857 44.6622 131.807 44.89 131.707 45.0975C131.609 45.3052 131.469 45.4799 131.289 45.6209C131.109 45.7624 130.903 45.8604 130.669 45.9149C130.77 46.0218 130.867 46.0989 130.961 46.1464C131.054 46.1941 131.15 46.2179 131.248 46.2179C131.461 46.2179 131.645 46.1315 131.801 45.9582L132.004 46.2049ZM129.23 45.0089C129.332 45.1863 129.473 45.3254 129.653 45.4264C129.833 45.5274 130.033 45.5776 130.255 45.5776C130.474 45.5776 130.672 45.5274 130.851 45.4264C131.03 45.3254 131.169 45.1863 131.271 45.0089C131.374 44.8315 131.425 44.6332 131.425 44.4142C131.425 44.1951 131.374 43.9965 131.271 43.8193C131.169 43.6421 131.03 43.5028 130.851 43.4019C130.672 43.301 130.474 43.2504 130.255 43.2504C130.033 43.2504 129.833 43.301 129.653 43.4019C129.473 43.5028 129.332 43.6421 129.23 43.8193C129.128 43.9965 129.077 44.1951 129.077 44.4142C129.077 44.6332 129.128 44.8315 129.23 45.0089Z" fill="white"/>
<path fill-rule="evenodd" clip-rule="evenodd" d="M127.804 45.1711H126.199L125.866 45.928H125.421L126.79 42.9H127.217L128.59 45.928H128.136L127.804 45.1711ZM127.653 44.825L127.002 43.3413L126.349 44.825H127.653Z" fill="white"/>
<path fill-rule="evenodd" clip-rule="evenodd" d="M174.058 40.8625C174.001 40.8062 173.973 40.7349 173.973 40.6486C173.973 40.5649 174.001 40.4949 174.058 40.4386C174.116 40.3824 174.185 40.3543 174.266 40.3543C174.346 40.3543 174.415 40.3817 174.469 40.4364C174.524 40.4912 174.551 40.562 174.551 40.6486C174.551 40.7349 174.522 40.8062 174.467 40.8625C174.411 40.9188 174.343 40.9468 174.266 40.9468C174.185 40.9468 174.116 40.9188 174.058 40.8625Z" fill="white"/>
<path fill-rule="evenodd" clip-rule="evenodd" d="M171.235 40.7694C170.983 40.6339 170.785 40.4474 170.643 40.2094C170.501 39.9715 170.43 39.7042 170.43 39.407C170.43 39.11 170.501 38.8426 170.643 38.6047C170.785 38.3667 170.983 38.1802 171.235 38.0443C171.487 37.9089 171.77 37.8411 172.083 37.8411C172.397 37.8411 172.679 37.9089 172.929 38.0443C173.18 38.1802 173.377 38.3667 173.52 38.6047C173.664 38.8426 173.737 39.11 173.737 39.407C173.737 39.7042 173.664 39.9715 173.52 40.2094C173.377 40.4474 173.18 40.6339 172.929 40.7694C172.679 40.9052 172.397 40.9729 172.083 40.9729C171.77 40.9729 171.487 40.9052 171.235 40.7694ZM172.566 40.2526C172.709 40.1705 172.823 40.0558 172.905 39.9086C172.987 39.7617 173.028 39.5944 173.028 39.407C173.028 39.2196 172.987 39.0522 172.905 38.9051C172.823 38.7581 172.709 38.6435 172.566 38.5611C172.423 38.4791 172.262 38.4381 172.083 38.4381C171.904 38.4381 171.744 38.4791 171.599 38.5611C171.456 38.6435 171.342 38.7581 171.26 38.9051C171.179 39.0522 171.137 39.2196 171.137 39.407C171.137 39.5944 171.179 39.7617 171.26 39.9086C171.342 40.0558 171.456 40.1705 171.599 40.2526C171.744 40.3347 171.904 40.3758 172.083 40.3758C172.262 40.3758 172.423 40.3347 172.566 40.2526Z" fill="white"/>
<path fill-rule="evenodd" clip-rule="evenodd" d="M169.9 37.893V40.9209H169.2V39.6794H167.828V40.9209H167.127V37.893H167.828V39.0867H169.2V37.893H169.9Z" fill="white"/>
<path fill-rule="evenodd" clip-rule="evenodd" d="M164.559 37.893H165.258V40.35H166.773V40.9209H164.559V37.893Z" fill="white"/>
<path fill-rule="evenodd" clip-rule="evenodd" d="M163.241 40.2722H161.838L161.57 40.9209H160.853L162.201 37.893H162.891L164.242 40.9209H163.509L163.241 40.2722ZM163.021 39.7402L162.541 38.5807L162.062 39.7402H163.021Z" fill="white"/>
<path fill-rule="evenodd" clip-rule="evenodd" d="M160.605 39.6211C160.702 39.7496 160.75 39.9072 160.75 40.0947C160.75 40.3602 160.648 40.5639 160.442 40.7068C160.237 40.8494 159.936 40.9208 159.543 40.9208H157.98V37.8928H159.455C159.825 37.8928 160.107 37.9636 160.305 38.1051C160.501 38.2463 160.6 38.4381 160.6 38.6802C160.6 38.8274 160.564 38.9586 160.494 39.074C160.424 39.1892 160.326 39.28 160.199 39.3464C160.371 39.4013 160.506 39.4928 160.605 39.6211ZM158.674 38.4207V39.1343H159.37C159.543 39.1343 159.673 39.1041 159.763 39.0435C159.852 38.9832 159.897 38.8938 159.897 38.7754C159.897 38.6574 159.852 38.5685 159.763 38.5094C159.673 38.4504 159.543 38.4207 159.37 38.4207H158.674ZM159.908 40.3025C160.001 40.2417 160.048 40.1479 160.048 40.0212C160.048 39.7704 159.862 39.6449 159.491 39.6449H158.674V40.3932H159.491C159.674 40.3932 159.814 40.363 159.908 40.3025Z" fill="white"/>
<path fill-rule="evenodd" clip-rule="evenodd" d="M156.661 40.2722H155.258L154.99 40.9209H154.275L155.622 37.893H156.312L157.664 40.9209H156.929L156.661 40.2722ZM156.442 39.7402L155.962 38.5807L155.483 39.7402H156.442Z" fill="white"/>
<path fill-rule="evenodd" clip-rule="evenodd" d="M153.314 40.9209L152.73 40.0775H152.087V40.9209H151.387V37.893H152.697C152.963 37.893 153.195 37.9378 153.393 38.0273C153.59 38.1165 153.742 38.2434 153.848 38.4079C153.955 38.5721 154.008 38.7668 154.008 38.9916C154.008 39.2166 153.955 39.4105 153.847 39.5734C153.738 39.7365 153.585 39.8611 153.386 39.9475L154.064 40.9209H153.314ZM153.136 38.6003C153.027 38.5096 152.867 38.4641 152.657 38.4641H152.087V39.5194H152.657C152.867 39.5194 153.027 39.4735 153.136 39.381C153.245 39.2887 153.3 39.1589 153.3 38.9916C153.3 38.8215 153.245 38.6911 153.136 38.6003Z" fill="white"/>
<path fill-rule="evenodd" clip-rule="evenodd" d="M149.374 38.4641H148.408V37.893H151.041V38.4641H150.074V40.9209H149.374V38.4641Z" fill="white"/>
<path fill-rule="evenodd" clip-rule="evenodd" d="M146.362 40.9209L146.357 38.7147L145.265 40.5534H145.067L143.975 38.7279V40.9209H143.56V37.893H143.914L145.175 40.0213L146.418 37.893H146.772L146.776 40.9209H146.362Z" fill="white"/>
<path fill-rule="evenodd" clip-rule="evenodd" d="M142.977 40.5447V40.9209H140.785V37.893H142.916V38.2694H141.216V39.1993H142.732V39.5669H141.216V40.5447H142.977Z" fill="white"/>
<path fill-rule="evenodd" clip-rule="evenodd" d="M138.889 38.2694H137.853V37.893H140.352V38.2694H139.317V40.9209H138.889V38.2694Z" fill="white"/>
<path fill-rule="evenodd" clip-rule="evenodd" d="M135.789 37.893H136.222V40.9209H135.789V37.893Z" fill="white"/>
<path fill-rule="evenodd" clip-rule="evenodd" d="M132.756 40.6096C132.532 40.3787 132.419 40.047 132.419 39.6145V37.893H132.851V39.5974C132.851 40.2461 133.134 40.5706 133.702 40.5706C133.978 40.5706 134.19 40.4905 134.335 40.3304C134.482 40.1705 134.556 39.9261 134.556 39.5974V37.893H134.975V39.6145C134.975 40.05 134.863 40.3824 134.639 40.6116C134.414 40.841 134.1 40.9555 133.697 40.9555C133.294 40.9555 132.98 40.8403 132.756 40.6096Z" fill="white"/>
<path fill-rule="evenodd" clip-rule="evenodd" d="M132.004 41.1977C131.905 41.3132 131.791 41.4011 131.662 41.4617C131.533 41.522 131.393 41.5526 131.244 41.5526C131.053 41.5526 130.876 41.5072 130.711 41.4164C130.545 41.3255 130.357 41.1704 130.143 40.9511C129.858 40.9367 129.602 40.8602 129.372 40.722C129.143 40.5836 128.965 40.3998 128.838 40.1705C128.708 39.9414 128.644 39.6868 128.644 39.4071C128.644 39.1158 128.714 38.8519 128.854 38.6153C128.994 38.3788 129.186 38.1936 129.43 38.0596C129.675 37.9255 129.95 37.8583 130.255 37.8583C130.557 37.8583 130.831 37.9255 131.076 38.0596C131.32 38.1936 131.512 38.3782 131.649 38.6131C131.788 38.8485 131.857 39.1129 131.857 39.4071C131.857 39.655 131.807 39.8829 131.707 40.0904C131.609 40.2981 131.469 40.4727 131.289 40.6137C131.109 40.7553 130.903 40.8532 130.669 40.9079C130.77 41.0146 130.867 41.0917 130.961 41.1394C131.054 41.1869 131.15 41.2109 131.248 41.2109C131.461 41.2109 131.645 41.1243 131.801 40.9511L132.004 41.1977ZM129.23 40.0017C129.332 40.1792 129.473 40.3185 129.653 40.4192C129.833 40.5203 130.033 40.5704 130.255 40.5704C130.474 40.5704 130.672 40.5203 130.851 40.4192C131.03 40.3185 131.169 40.1792 131.271 40.0017C131.374 39.8245 131.425 39.6261 131.425 39.4071C131.425 39.1881 131.374 38.9894 131.271 38.8122C131.169 38.6349 131.03 38.4958 130.851 38.3948C130.672 38.2939 130.474 38.2434 130.255 38.2434C130.033 38.2434 129.833 38.2939 129.653 38.3948C129.473 38.4958 129.332 38.6349 129.23 38.8122C129.128 38.9894 129.077 39.1881 129.077 39.4071C129.077 39.6261 129.128 39.8245 129.23 40.0017Z" fill="white"/>
<path fill-rule="evenodd" clip-rule="evenodd" d="M127.804 40.1641H126.199L125.866 40.9209H125.421L126.79 37.893H127.217L128.59 40.9209H128.136L127.804 40.1641ZM127.653 39.8179L127.002 38.3342L126.349 39.8179H127.653Z" fill="white"/>
</svg>
